<svg>
<line x1="-1" y1="-9" x2="1" y2="-9" style="stroke:black;stroke-width:0.25px;fill:none"/>
<line x1="-1" y1="-9" x2="-1" y2="-14" style="stroke:lime;stroke-width:0.1px;fill:none"/>
<line x1="1" y1="-9" x2="1" y2="-14" style="stroke:lime;stroke-width:0.1px;fill:none"/>
<line x1="1" y1="-9" x2="1" y2="-8.5" style="stroke:black;stroke-width:0.25px;fill:none"/>
<line x1="1" y1="-9" x2="6" y2="-9" style="stroke:lime;stroke-width:0.1px;fill:none"/>
<line x1="1" y1="-8.5" x2="6" y2="-8.5" style="stroke:lime;stroke-width:0.1px;fill:none"/>
<line x1="1" y1="-8.5" x2="2.220739676521509" y2="-8.265489416188442" style="stroke:black;stroke-width:0.25px;fill:none"/>
<line x1="1" y1="-8.5" x2="1.584206237836986" y2="-13.46575302161438" style="stroke:lime;stroke-width:0.1px;fill:none"/>
<line x1="2.220739676521509" y1="-8.265489416188442" x2="3.518109648157465" y2="-13.094239891901317" style="stroke:lime;stroke-width:0.1px;fill:none"/>
<line x1="2.220739676521509" y1="-8.265489416188442" x2="3.3946330975088657" y2="-7.856619255971194" style="stroke:black;stroke-width:0.25px;fill:none"/>
<line x1="2.220739676521509" y1="-8.265489416188442" x2="3.518109648157465" y2="-13.094239891901317" style="stroke:lime;stroke-width:0.1px;fill:none"/>
<line x1="3.3946330975088657" y1="-7.856619255971194" x2="5.377798928241434" y2="-12.446505233619746" style="stroke:lime;stroke-width:0.1px;fill:none"/>
<line x1="3.3946330975088657" y1="-7.856619255971194" x2="4.496917112309684" y2="-7.282014589728335" style="stroke:black;stroke-width:0.25px;fill:none"/>
<line x1="3.3946330975088657" y1="-7.856619255971194" x2="5.377798928241434" y2="-12.446505233619746" style="stroke:lime;stroke-width:0.1px;fill:none"/>
<line x1="4.496917112309684" y1="-7.282014589728335" x2="7.1240441403568875" y2="-11.536212937067567" style="stroke:lime;stroke-width:0.1px;fill:none"/>
<line x1="4.496917112309684" y1="-7.282014589728335" x2="5.5043391627000045" y2="-6.5537966387405575" style="stroke:black;stroke-width:0.25px;fill:none"/>
<line x1="4.496917112309684" y1="-7.282014589728335" x2="7.1240441403568875" y2="-11.536212937067567" style="stroke:lime;stroke-width:0.1px;fill:none"/>
<line x1="5.5043391627000045" y1="-6.5537966387405575" x2="8.720008436719759" y2="-10.382565516607864" style="stroke:lime;stroke-width:0.1px;fill:none"/>
<line x1="5.5043391627000045" y1="-6.5537966387405575" x2="6.3956477930039215" y2="-5.687327079379563" style="stroke:black;stroke-width:0.25px;fill:none"/>
<line x1="5.5043391627000045" y1="-6.5537966387405575" x2="8.720008436719759" y2="-10.382565516607864" style="stroke:lime;stroke-width:0.1px;fill:none"/>
<line x1="6.3956477930039215" y1="-5.687327079379563" x2="10.132025128685164" y2="-9.00989903577231" style="stroke:lime;stroke-width:0.1px;fill:none"/>
<line x1="6.3956477930039215" y1="-5.687327079379563" x2="7.15204094717837" y2="-4.700883990260122" style="stroke:black;stroke-width:0.25px;fill:none"/>
<line x1="6.3956477930039215" y1="-5.687327079379563" x2="10.132025128685164" y2="-9.00989903577231" style="stroke:lime;stroke-width:0.1px;fill:none"/>
<line x1="7.15204094717837" y1="-4.700883990260122" x2="11.330307881785519" y2="-7.447169740718106" style="stroke:lime;stroke-width:0.1px;fill:none"/>
<line x1="7.15204094717837" y1="-4.700883990260122" x2="7.757562596086139" y2="-3.6152762782123986" style="stroke:black;stroke-width:0.25px;fill:none"/>
<line x1="7.15204094717837" y1="-4.700883990260122" x2="11.330307881785519" y2="-7.447169740718106" style="stroke:lime;stroke-width:0.1px;fill:none"/>
<line x1="7.757562596086139" y1="-3.6152762782123986" x2="12.289579055130543" y2="-5.727343231448165" style="stroke:lime;stroke-width:0.1px;fill:none"/>
<line x1="7.757562596086139" y1="-3.6152762782123986" x2="8.199439328149051" y2="-2.453404716715657" style="stroke:black;stroke-width:0.25px;fill:none"/>
<line x1="7.757562596086139" y1="-3.6152762782123986" x2="12.289579055130543" y2="-5.727343231448165" style="stroke:lime;stroke-width:0.1px;fill:none"/>
<line x1="8.199439328149051" y1="-2.453404716715657" x2="12.989602930419633" y2="-3.8866990561596277" style="stroke:lime;stroke-width:0.1px;fill:none"/>
<line x1="8.199439328149051" y1="-2.453404716715657" x2="8.468349803039079" y2="-1.239778856638551" style="stroke:black;stroke-width:0.25px;fill:none"/>
<line x1="8.199439328149051" y1="-2.453404716715657" x2="12.989602930419633" y2="-3.8866990561596277" style="stroke:lime;stroke-width:0.1px;fill:none"/>
<line x1="8.468349803039079" y1="-1.239778856638551" x2="13.41561258216012" y2="-1.9640653982251988" style="stroke:lime;stroke-width:0.1px;fill:none"/>
<line x1="8.468349803039079" y1="-1.239778856638551" x2="8.558621384311845" y2="4.440892098500626e-16" style="stroke:black;stroke-width:0.25px;fill:none"/>
<line x1="8.468349803039079" y1="-1.239778856638551" x2="13.41561258216012" y2="-1.9640653982251988" style="stroke:lime;stroke-width:0.1px;fill:none"/>
<line x1="8.558621384311845" y1="4.440892098500626e-16" x2="13.558621384311845" y2="7.035288964005675e-16" style="stroke:lime;stroke-width:0.1px;fill:none"/>
<line x1="8.5" y1="0" x2="8.316461936106826" y2="-1.1588137289060527" style="stroke:black;stroke-width:0.25px;fill:none"/>
<line x1="8.5" y1="0" x2="13.5" y2="0" style="stroke:lime;stroke-width:0.1px;fill:none"/>
<line x1="8.316461936106826" y1="-1.1588137289060527" x2="3.561179354631058" y2="0.38627124296868454" style="stroke:lime;stroke-width:0.1px;fill:none"/>
<line x1="8.316461936106826" y1="-1.1588137289060527" x2="7.783813728906053" y2="-2.204194696096774" style="stroke:black;stroke-width:0.25px;fill:none"/>
<line x1="8.316461936106826" y1="-1.1588137289060527" x2="3.561179354631058" y2="0.38627124296868454" style="stroke:lime;stroke-width:0.1px;fill:none"/>
<line x1="7.783813728906053" y1="-2.204194696096774" x2="3.738728757031316" y2="0.7347315653655908" style="stroke:lime;stroke-width:0.1px;fill:none"/>
<line x1="7.783813728906053" y1="-2.204194696096774" x2="6.954194696096774" y2="-3.033813728906053" style="stroke:black;stroke-width:0.25px;fill:none"/>
<line x1="7.783813728906053" y1="-2.204194696096774" x2="3.738728757031316" y2="0.7347315653655908" style="stroke:lime;stroke-width:0.1px;fill:none"/>
<line x1="6.954194696096774" y1="-3.033813728906053" x2="4.015268434634409" y2="1.011271242968684" style="stroke:lime;stroke-width:0.1px;fill:none"/>
<line x1="6.954194696096774" y1="-3.033813728906053" x2="5.908813728906053" y2="-3.5664619361068257" style="stroke:black;stroke-width:0.25px;fill:none"/>
<line x1="6.954194696096774" y1="-3.033813728906053" x2="4.015268434634409" y2="1.011271242968684" style="stroke:lime;stroke-width:0.1px;fill:none"/>
<line x1="5.908813728906053" y1="-3.5664619361068257" x2="4.363728757031316" y2="1.1888206453689425" style="stroke:lime;stroke-width:0.1px;fill:none"/>
<line x1="5.908813728906053" y1="-3.5664619361068257" x2="4.75" y2="-3.75" style="stroke:black;stroke-width:0.25px;fill:none"/>
<line x1="5.908813728906053" y1="-3.5664619361068257" x2="4.363728757031316" y2="1.1888206453689425" style="stroke:lime;stroke-width:0.1px;fill:none"/>
<line x1="4.75" y1="-3.75" x2="4.75" y2="1.25" style="stroke:lime;stroke-width:0.1px;fill:none"/>
<line x1="4.75" y1="-3.75" x2="3.5911862710939477" y2="-3.566461936106826" style="stroke:black;stroke-width:0.25px;fill:none"/>
<line x1="4.75" y1="-3.75" x2="4.75" y2="1.25" style="stroke:lime;stroke-width:0.1px;fill:none"/>
<line x1="3.5911862710939477" y1="-3.566461936106826" x2="5.136271242968684" y2="1.1888206453689412" style="stroke:lime;stroke-width:0.1px;fill:none"/>
<line x1="3.5911862710939477" y1="-3.566461936106826" x2="2.5458053039032262" y2="-3.033813728906053" style="stroke:black;stroke-width:0.25px;fill:none"/>
<line x1="3.5911862710939477" y1="-3.566461936106826" x2="5.136271242968684" y2="1.1888206453689412" style="stroke:lime;stroke-width:0.1px;fill:none"/>
<line x1="2.5458053039032262" y1="-3.033813728906053" x2="5.484731565365591" y2="1.011271242968685" style="stroke:lime;stroke-width:0.1px;fill:none"/>
<line x1="2.5458053039032262" y1="-3.033813728906053" x2="1.7161862710939473" y2="-2.2041946960967747" style="stroke:black;stroke-width:0.25px;fill:none"/>
<line x1="2.5458053039032262" y1="-3.033813728906053" x2="5.484731565365591" y2="1.011271242968685" style="stroke:lime;stroke-width:0.1px;fill:none"/>
<line x1="1.7161862710939473" y1="-2.2041946960967747" x2="5.761271242968684" y2="0.7347315653655917" style="stroke:lime;stroke-width:0.1px;fill:none"/>
<line x1="1.7161862710939473" y1="-2.2041946960967747" x2="1.1835380638931743" y2="-1.1588137289060532" style="stroke:black;stroke-width:0.25px;fill:none"/>
<line x1="1.7161862710939473" y1="-2.2041946960967747" x2="5.761271242968684" y2="0.7347315653655917" style="stroke:lime;stroke-width:0.1px;fill:none"/>
<line x1="1.1835380638931743" y1="-1.1588137289060532" x2="5.938820645368942" y2="0.3862712429686843" style="stroke:lime;stroke-width:0.1px;fill:none"/>
<line x1="1.1835380638931743" y1="-1.1588137289060532" x2="1" y2="-4.592425496802575e-16" style="stroke:black;stroke-width:0.25px;fill:none"/>
<line x1="1.1835380638931743" y1="-1.1588137289060532" x2="5.938820645368942" y2="0.3862712429686843" style="stroke:lime;stroke-width:0.1px;fill:none"/>
<line x1="1" y1="-4.592425496802575e-16" x2="6" y2="1.5308084989341913e-16" style="stroke:lime;stroke-width:0.1px;fill:none"/>
<line x1="1" y1="0" x2="1" y2="9" style="stroke:black;stroke-width:0.25px;fill:none"/>
<line x1="1" y1="0" x2="6" y2="0" style="stroke:lime;stroke-width:0.1px;fill:none"/>
<line x1="1" y1="9" x2="6" y2="9" style="stroke:lime;stroke-width:0.1px;fill:none"/>
<line x1="1" y1="9" x2="-1" y2="9" style="stroke:black;stroke-width:0.25px;fill:none"/>
<line x1="1" y1="9" x2="1" y2="14" style="stroke:lime;stroke-width:0.1px;fill:none"/>
<line x1="-1" y1="9" x2="-1" y2="14" style="stroke:lime;stroke-width:0.1px;fill:none"/>
<line x1="-1" y1="9" x2="-1" y2="8.5" style="stroke:black;stroke-width:0.25px;fill:none"/>
<line x1="-1" y1="9" x2="-6" y2="9" style="stroke:lime;stroke-width:0.1px;fill:none"/>
<line x1="-1" y1="8.5" x2="-6" y2="8.5" style="stroke:lime;stroke-width:0.1px;fill:none"/>
<line x1="-1" y1="8.5" x2="-2.220739676521509" y2="8.265489416188442" style="stroke:black;stroke-width:0.25px;fill:none"/>
<line x1="-1" y1="8.5" x2="-1.584206237836986" y2="13.46575302161438" style="stroke:lime;stroke-width:0.1px;fill:none"/>
<line x1="-2.220739676521509" y1="8.265489416188442" x2="-3.518109648157465" y2="13.094239891901317" style="stroke:lime;stroke-width:0.1px;fill:none"/>
<line x1="-2.220739676521509" y1="8.265489416188442" x2="-3.3946330975088657" y2="7.856619255971194" style="stroke:black;stroke-width:0.25px;fill:none"/>
<line x1="-2.220739676521509" y1="8.265489416188442" x2="-3.518109648157465" y2="13.094239891901317" style="stroke:lime;stroke-width:0.1px;fill:none"/>
<line x1="-3.3946330975088657" y1="7.856619255971194" x2="-5.377798928241434" y2="12.446505233619746" style="stroke:lime;stroke-width:0.1px;fill:none"/>
<line x1="-3.3946330975088657" y1="7.856619255971194" x2="-4.496917112309684" y2="7.282014589728335" style="stroke:black;stroke-width:0.25px;fill:none"/>
<line x1="-3.3946330975088657" y1="7.856619255971194" x2="-5.377798928241434" y2="12.446505233619746" style="stroke:lime;stroke-width:0.1px;fill:none"/>
<line x1="-4.496917112309684" y1="7.282014589728335" x2="-7.1240441403568875" y2="11.536212937067567" style="stroke:lime;stroke-width:0.1px;fill:none"/>
<line x1="-4.496917112309684" y1="7.282014589728335" x2="-5.5043391627000045" y2="6.5537966387405575" style="stroke:black;stroke-width:0.25px;fill:none"/>
<line x1="-4.496917112309684" y1="7.282014589728335" x2="-7.1240441403568875" y2="11.536212937067567" style="stroke:lime;stroke-width:0.1px;fill:none"/>
<line x1="-5.5043391627000045" y1="6.5537966387405575" x2="-8.720008436719759" y2="10.382565516607864" style="stroke:lime;stroke-width:0.1px;fill:none"/>
<line x1="-5.5043391627000045" y1="6.5537966387405575" x2="-6.3956477930039215" y2="5.687327079379563" style="stroke:black;stroke-width:0.25px;fill:none"/>
<line x1="-5.5043391627000045" y1="6.5537966387405575" x2="-8.720008436719759" y2="10.382565516607864" style="stroke:lime;stroke-width:0.1px;fill:none"/>
<line x1="-6.3956477930039215" y1="5.687327079379563" x2="-10.132025128685164" y2="9.00989903577231" style="stroke:lime;stroke-width:0.1px;fill:none"/>
<line x1="-6.3956477930039215" y1="5.687327079379563" x2="-7.15204094717837" y2="4.700883990260122" style="stroke:black;stroke-width:0.25px;fill:none"/>
<line x1="-6.3956477930039215" y1="5.687327079379563" x2="-10.132025128685164" y2="9.00989903577231" style="stroke:lime;stroke-width:0.1px;fill:none"/>
<line x1="-7.15204094717837" y1="4.700883990260122" x2="-11.330307881785519" y2="7.447169740718106" style="stroke:lime;stroke-width:0.1px;fill:none"/>
<line x1="-7.15204094717837" y1="4.700883990260122" x2="-7.757562596086139" y2="3.6152762782123986" style="stroke:black;stroke-width:0.25px;fill:none"/>
<line x1="-7.15204094717837" y1="4.700883990260122" x2="-11.330307881785519" y2="7.447169740718106" style="stroke:lime;stroke-width:0.1px;fill:none"/>
<line x1="-7.757562596086139" y1="3.6152762782123986" x2="-12.289579055130543" y2="5.727343231448165" style="stroke:lime;stroke-width:0.1px;fill:none"/>
<line x1="-7.757562596086139" y1="3.6152762782123986" x2="-8.199439328149051" y2="2.453404716715657" style="stroke:black;stroke-width:0.25px;fill:none"/>
<line x1="-7.757562596086139" y1="3.6152762782123986" x2="-12.289579055130543" y2="5.727343231448165" style="stroke:lime;stroke-width:0.1px;fill:none"/>
<line x1="-8.199439328149051" y1="2.453404716715657" x2="-12.989602930419633" y2="3.8866990561596277" style="stroke:lime;stroke-width:0.1px;fill:none"/>
<line x1="-8.199439328149051" y1="2.453404716715657" x2="-8.468349803039079" y2="1.239778856638551" style="stroke:black;stroke-width:0.25px;fill:none"/>
<line x1="-8.199439328149051" y1="2.453404716715657" x2="-12.989602930419633" y2="3.8866990561596277" style="stroke:lime;stroke-width:0.1px;fill:none"/>
<line x1="-8.468349803039079" y1="1.239778856638551" x2="-13.41561258216012" y2="1.9640653982251988" style="stroke:lime;stroke-width:0.1px;fill:none"/>
<line x1="-8.468349803039079" y1="1.239778856638551" x2="-8.558621384311845" y2="-4.440892098500626e-16" style="stroke:black;stroke-width:0.25px;fill:none"/>
<line x1="-8.468349803039079" y1="1.239778856638551" x2="-13.41561258216012" y2="1.9640653982251988" style="stroke:lime;stroke-width:0.1px;fill:none"/>
<line x1="-8.558621384311845" y1="-4.440892098500626e-16" x2="-13.558621384311845" y2="-7.035288964005675e-16" style="stroke:lime;stroke-width:0.1px;fill:none"/>
<line x1="-8.5" y1="0" x2="-8.316461936106826" y2="1.1588137289060527" style="stroke:black;stroke-width:0.25px;fill:none"/>
<line x1="-8.5" y1="0" x2="-13.5" y2="0" style="stroke:lime;stroke-width:0.1px;fill:none"/>
<line x1="-8.316461936106826" y1="1.1588137289060527" x2="-3.561179354631058" y2="-0.38627124296868454" style="stroke:lime;stroke-width:0.1px;fill:none"/>
<line x1="-8.316461936106826" y1="1.1588137289060527" x2="-7.783813728906053" y2="2.204194696096774" style="stroke:black;stroke-width:0.25px;fill:none"/>
<line x1="-8.316461936106826" y1="1.1588137289060527" x2="-3.561179354631058" y2="-0.38627124296868454" style="stroke:lime;stroke-width:0.1px;fill:none"/>
<line x1="-7.783813728906053" y1="2.204194696096774" x2="-3.738728757031316" y2="-0.7347315653655908" style="stroke:lime;stroke-width:0.1px;fill:none"/>
<line x1="-7.783813728906053" y1="2.204194696096774" x2="-6.954194696096774" y2="3.033813728906053" style="stroke:black;stroke-width:0.25px;fill:none"/>
<line x1="-7.783813728906053" y1="2.204194696096774" x2="-3.738728757031316" y2="-0.7347315653655908" style="stroke:lime;stroke-width:0.1px;fill:none"/>
<line x1="-6.954194696096774" y1="3.033813728906053" x2="-4.015268434634409" y2="-1.011271242968684" style="stroke:lime;stroke-width:0.1px;fill:none"/>
<line x1="-6.954194696096774" y1="3.033813728906053" x2="-5.908813728906053" y2="3.5664619361068257" style="stroke:black;stroke-width:0.25px;fill:none"/>
<line x1="-6.954194696096774" y1="3.033813728906053" x2="-4.015268434634409" y2="-1.011271242968684" style="stroke:lime;stroke-width:0.1px;fill:none"/>
<line x1="-5.908813728906053" y1="3.5664619361068257" x2="-4.363728757031316" y2="-1.1888206453689425" style="stroke:lime;stroke-width:0.1px;fill:none"/>
<line x1="-5.908813728906053" y1="3.5664619361068257" x2="-4.75" y2="3.75" style="stroke:black;stroke-width:0.25px;fill:none"/>
<line x1="-5.908813728906053" y1="3.5664619361068257" x2="-4.363728757031316" y2="-1.1888206453689425" style="stroke:lime;stroke-width:0.1px;fill:none"/>
<line x1="-4.75" y1="3.75" x2="-4.75" y2="-1.25" style="stroke:lime;stroke-width:0.1px;fill:none"/>
<line x1="-4.75" y1="3.75" x2="-3.5911862710939477" y2="3.566461936106826" style="stroke:black;stroke-width:0.25px;fill:none"/>
<line x1="-4.75" y1="3.75" x2="-4.75" y2="-1.25" style="stroke:lime;stroke-width:0.1px;fill:none"/>
<line x1="-3.5911862710939477" y1="3.566461936106826" x2="-5.136271242968684" y2="-1.1888206453689412" style="stroke:lime;stroke-width:0.1px;fill:none"/>
<line x1="-3.5911862710939477" y1="3.566461936106826" x2="-2.5458053039032262" y2="3.033813728906053" style="stroke:black;stroke-width:0.25px;fill:none"/>
<line x1="-3.5911862710939477" y1="3.566461936106826" x2="-5.136271242968684" y2="-1.1888206453689412" style="stroke:lime;stroke-width:0.1px;fill:none"/>
<line x1="-2.5458053039032262" y1="3.033813728906053" x2="-5.484731565365591" y2="-1.011271242968685" style="stroke:lime;stroke-width:0.1px;fill:none"/>
<line x1="-2.5458053039032262" y1="3.033813728906053" x2="-1.7161862710939473" y2="2.2041946960967747" style="stroke:black;stroke-width:0.25px;fill:none"/>
<line x1="-2.5458053039032262" y1="3.033813728906053" x2="-5.484731565365591" y2="-1.011271242968685" style="stroke:lime;stroke-width:0.1px;fill:none"/>
<line x1="-1.7161862710939473" y1="2.2041946960967747" x2="-5.761271242968684" y2="-0.7347315653655917" style="stroke:lime;stroke-width:0.1px;fill:none"/>
<line x1="-1.7161862710939473" y1="2.2041946960967747" x2="-1.1835380638931743" y2="1.1588137289060532" style="stroke:black;stroke-width:0.25px;fill:none"/>
<line x1="-1.7161862710939473" y1="2.2041946960967747" x2="-5.761271242968684" y2="-0.7347315653655917" style="stroke:lime;stroke-width:0.1px;fill:none"/>
<line x1="-1.1835380638931743" y1="1.1588137289060532" x2="-5.938820645368942" y2="-0.3862712429686843" style="stroke:lime;stroke-width:0.1px;fill:none"/>
<line x1="-1.1835380638931743" y1="1.1588137289060532" x2="-1" y2="4.592425496802575e-16" style="stroke:black;stroke-width:0.25px;fill:none"/>
<line x1="-1.1835380638931743" y1="1.1588137289060532" x2="-5.938820645368942" y2="-0.3862712429686843" style="stroke:lime;stroke-width:0.1px;fill:none"/>
<line x1="-1" y1="4.592425496802575e-16" x2="-6" y2="-1.5308084989341913e-16" style="stroke:lime;stroke-width:0.1px;fill:none"/>
<line x1="-1" y1="0" x2="-1" y2="-9" style="stroke:black;stroke-width:0.25px;fill:none"/>
<line x1="-1" y1="0" x2="-6" y2="0" style="stroke:lime;stroke-width:0.1px;fill:none"/>
<line x1="-1" y1="-9" x2="-6" y2="-9" style="stroke:lime;stroke-width:0.1px;fill:none"/>
</svg>