<svg>
<line x1="-1" y1="-9" x2="-1" y2="-14" style="stroke:lime;stroke-width:0.1px;fill:none"/><line x1="1" y1="-9" x2="6" y2="-9" style="stroke:lime;stroke-width:0.1px;fill:none"/><line x1="1" y1="-8.5" x2="1.943278687562434" y2="-13.410216422683474" style="stroke:lime;stroke-width:0.1px;fill:none"/><line x1="2.220739676521509" y1="-8.265489416188442" x2="3.865349919030148" y2="-12.987274793589208" style="stroke:lime;stroke-width:0.1px;fill:none"/><line x1="3.3946330975088657" y1="-7.856619255971194" x2="5.705882025516104" y2="-12.290368052732845" style="stroke:lime;stroke-width:0.1px;fill:none"/><line x1="4.496917112309684" y1="-7.282014589728335" x2="7.4260491877264965" y2="-11.334197370004219" style="stroke:lime;stroke-width:0.1px;fill:none"/><line x1="5.5043391627000045" y1="-6.5537966387405575" x2="8.98956467142844" y2="-10.13893305920054" style="stroke:lime;stroke-width:0.1px;fill:none"/><line x1="6.3956477930039215" y1="-5.687327079379563" x2="10.363446292057256" y2="-8.729789087508852" style="stroke:lime;stroke-width:0.1px;fill:none"/><line x1="7.15204094717837" y1="-4.700883990260122" x2="11.518712170217494" y2="-7.136491189683296" style="stroke:lime;stroke-width:0.1px;fill:none"/><line x1="7.757562596086139" y1="-3.6152762782123986" x2="12.430992101192974" y2="-5.392649806989308" style="stroke:lime;stroke-width:0.1px;fill:none"/><line x1="8.199439328149051" y1="-2.453404716715657" x2="13.08104164169437" y2="-3.5350510786977" style="stroke:lime;stroke-width:0.1px;fill:none"/><line x1="8.468349803039079" y1="-1.239778856638551" x2="13.455148069241815" y2="-1.6028808425838181" style="stroke:lime;stroke-width:0.1px;fill:none"/><line x1="8.558621384311845" y1="4.440892098500626e-16" x2="3.6643441770426355" y2="1.0227661601779303" style="stroke:lime;stroke-width:0.1px;fill:none"/><line x1="8.316461936106826" y1="-1.1588137289060527" x2="3.8614293151649868" y2="1.1111387697916806" style="stroke:lime;stroke-width:0.1px;fill:none"/><line x1="7.783813728906053" y1="-2.204194696096774" x2="4.248279822973316" y2="1.331339209835963" style="stroke:lime;stroke-width:0.1px;fill:none"/><line x1="6.954194696096774" y1="-3.033813728906053" x2="4.684242197399041" y2="1.421218892035787" style="stroke:lime;stroke-width:0.1px;fill:none"/><line x1="5.908813728906053" y1="-3.5664619361068257" x2="5.126641403704898" y2="1.3719797668688636" style="stroke:lime;stroke-width:0.1px;fill:none"/><line x1="4.75" y1="-3.75" x2="5.532172325201154" y2="1.1884417029756893" style="stroke:lime;stroke-width:0.1px;fill:none"/><line x1="3.5911862710939477" y1="-3.566461936106826" x2="5.8611387697916815" y2="0.8885706848350132" style="stroke:lime;stroke-width:0.1px;fill:none"/><line x1="2.5458053039032262" y1="-3.033813728906053" x2="6.0813392098359635" y2="0.5017201770266859" style="stroke:lime;stroke-width:0.1px;fill:none"/><line x1="1.7161862710939473" y1="-2.2041946960967747" x2="6.171218892035787" y2="0.06575780260095865" style="stroke:lime;stroke-width:0.1px;fill:none"/><line x1="1.1835380638931743" y1="-1.1588137289060532" x2="6.121979766868863" y2="-0.37664140370489796" style="stroke:lime;stroke-width:0.1px;fill:none"/><line x1="1" y1="-4.592425496802575e-16" x2="6" y2="-4.592425496802575e-16" style="stroke:lime;stroke-width:0.1px;fill:none"/><line x1="1" y1="9" x2="1" y2="14" style="stroke:lime;stroke-width:0.1px;fill:none"/><line x1="-1" y1="9" x2="-6" y2="9" style="stroke:lime;stroke-width:0.1px;fill:none"/><line x1="-1" y1="8.5" x2="-1.943278687562434" y2="13.410216422683474" style="stroke:lime;stroke-width:0.1px;fill:none"/><line x1="-2.220739676521509" y1="8.265489416188442" x2="-3.865349919030148" y2="12.987274793589208" style="stroke:lime;stroke-width:0.1px;fill:none"/><line x1="-3.3946330975088657" y1="7.856619255971194" x2="-5.705882025516104" y2="12.290368052732845" style="stroke:lime;stroke-width:0.1px;fill:none"/><line x1="-4.496917112309684" y1="7.282014589728335" x2="-7.4260491877264965" y2="11.334197370004219" style="stroke:lime;stroke-width:0.1px;fill:none"/><line x1="-5.5043391627000045" y1="6.5537966387405575" x2="-8.98956467142844" y2="10.13893305920054" style="stroke:lime;stroke-width:0.1px;fill:none"/><line x1="-6.3956477930039215" y1="5.687327079379563" x2="-10.363446292057256" y2="8.729789087508852" style="stroke:lime;stroke-width:0.1px;fill:none"/><line x1="-7.15204094717837" y1="4.700883990260122" x2="-11.518712170217494" y2="7.136491189683296" style="stroke:lime;stroke-width:0.1px;fill:none"/><line x1="-7.757562596086139" y1="3.6152762782123986" x2="-12.430992101192974" y2="5.392649806989308" style="stroke:lime;stroke-width:0.1px;fill:none"/><line x1="-8.199439328149051" y1="2.453404716715657" x2="-13.08104164169437" y2="3.5350510786977" style="stroke:lime;stroke-width:0.1px;fill:none"/><line x1="-8.468349803039079" y1="1.239778856638551" x2="-13.455148069241815" y2="1.6028808425838181" style="stroke:lime;stroke-width:0.1px;fill:none"/><line x1="-8.558621384311845" y1="-4.440892098500626e-16" x2="-3.6643441770426355" y2="-1.0227661601779303" style="stroke:lime;stroke-width:0.1px;fill:none"/><line x1="-8.316461936106826" y1="1.1588137289060527" x2="-3.8614293151649868" y2="-1.1111387697916806" style="stroke:lime;stroke-width:0.1px;fill:none"/><line x1="-7.783813728906053" y1="2.204194696096774" x2="-4.248279822973316" y2="-1.331339209835963" style="stroke:lime;stroke-width:0.1px;fill:none"/><line x1="-6.954194696096774" y1="3.033813728906053" x2="-4.684242197399041" y2="-1.421218892035787" style="stroke:lime;stroke-width:0.1px;fill:none"/><line x1="-5.908813728906053" y1="3.5664619361068257" x2="-5.126641403704898" y2="-1.3719797668688636" style="stroke:lime;stroke-width:0.1px;fill:none"/><line x1="-4.75" y1="3.75" x2="-5.532172325201154" y2="-1.1884417029756893" style="stroke:lime;stroke-width:0.1px;fill:none"/><line x1="-3.5911862710939477" y1="3.566461936106826" x2="-5.8611387697916815" y2="-0.8885706848350132" style="stroke:lime;stroke-width:0.1px;fill:none"/><line x1="-2.5458053039032262" y1="3.033813728906053" x2="-6.0813392098359635" y2="-0.5017201770266859" style="stroke:lime;stroke-width:0.1px;fill:none"/><line x1="-1.7161862710939473" y1="2.2041946960967747" x2="-6.171218892035787" y2="-0.06575780260095865" style="stroke:lime;stroke-width:0.1px;fill:none"/><line x1="-1.1835380638931743" y1="1.1588137289060532" x2="-6.121979766868863" y2="0.37664140370489796" style="stroke:lime;stroke-width:0.1px;fill:none"/><line x1="-1" y1="4.592425496802575e-16" x2="-6" y2="4.592425496802575e-16" style="stroke:lime;stroke-width:0.1px;fill:none"/><line x1="-1" y1="-9" x2="1" y2="-9" style="stroke:black;stroke-width:0.25px;fill:none"/><line x1="1" y1="-9" x2="1" y2="-8.5" style="stroke:black;stroke-width:0.25px;fill:none"/><line x1="1" y1="-8.5" x2="2.220739676521509" y2="-8.265489416188442" style="stroke:black;stroke-width:0.25px;fill:none"/><line x1="2.220739676521509" y1="-8.265489416188442" x2="3.3946330975088657" y2="-7.856619255971194" style="stroke:black;stroke-width:0.25px;fill:none"/><line x1="3.3946330975088657" y1="-7.856619255971194" x2="4.496917112309684" y2="-7.282014589728335" style="stroke:black;stroke-width:0.25px;fill:none"/><line x1="4.496917112309684" y1="-7.282014589728335" x2="5.5043391627000045" y2="-6.5537966387405575" style="stroke:black;stroke-width:0.25px;fill:none"/><line x1="5.5043391627000045" y1="-6.5537966387405575" x2="6.3956477930039215" y2="-5.687327079379563" style="stroke:black;stroke-width:0.25px;fill:none"/><line x1="6.3956477930039215" y1="-5.687327079379563" x2="7.15204094717837" y2="-4.700883990260122" style="stroke:black;stroke-width:0.25px;fill:none"/><line x1="7.15204094717837" y1="-4.700883990260122" x2="7.757562596086139" y2="-3.6152762782123986" style="stroke:black;stroke-width:0.25px;fill:none"/><line x1="7.757562596086139" y1="-3.6152762782123986" x2="8.199439328149051" y2="-2.453404716715657" style="stroke:black;stroke-width:0.25px;fill:none"/><line x1="8.199439328149051" y1="-2.453404716715657" x2="8.468349803039079" y2="-1.239778856638551" style="stroke:black;stroke-width:0.25px;fill:none"/><line x1="8.468349803039079" y1="-1.239778856638551" x2="8.558621384311845" y2="4.440892098500626e-16" style="stroke:black;stroke-width:0.25px;fill:none"/><line x1="8.558621384311845" y1="4.440892098500626e-16" x2="8.316461936106826" y2="-1.1588137289060527" style="stroke:black;stroke-width:0.25px;fill:none"/><line x1="8.316461936106826" y1="-1.1588137289060527" x2="7.783813728906053" y2="-2.204194696096774" style="stroke:black;stroke-width:0.25px;fill:none"/><line x1="7.783813728906053" y1="-2.204194696096774" x2="6.954194696096774" y2="-3.033813728906053" style="stroke:black;stroke-width:0.25px;fill:none"/><line x1="6.954194696096774" y1="-3.033813728906053" x2="5.908813728906053" y2="-3.5664619361068257" style="stroke:black;stroke-width:0.25px;fill:none"/><line x1="5.908813728906053" y1="-3.5664619361068257" x2="4.75" y2="-3.75" style="stroke:black;stroke-width:0.25px;fill:none"/><line x1="4.75" y1="-3.75" x2="3.5911862710939477" y2="-3.566461936106826" style="stroke:black;stroke-width:0.25px;fill:none"/><line x1="3.5911862710939477" y1="-3.566461936106826" x2="2.5458053039032262" y2="-3.033813728906053" style="stroke:black;stroke-width:0.25px;fill:none"/><line x1="2.5458053039032262" y1="-3.033813728906053" x2="1.7161862710939473" y2="-2.2041946960967747" style="stroke:black;stroke-width:0.25px;fill:none"/><line x1="1.7161862710939473" y1="-2.2041946960967747" x2="1.1835380638931743" y2="-1.1588137289060532" style="stroke:black;stroke-width:0.25px;fill:none"/><line x1="1.1835380638931743" y1="-1.1588137289060532" x2="1" y2="-4.592425496802575e-16" style="stroke:black;stroke-width:0.25px;fill:none"/><line x1="1" y1="-4.592425496802575e-16" x2="1" y2="9" style="stroke:black;stroke-width:0.25px;fill:none"/><line x1="1" y1="9" x2="-1" y2="9" style="stroke:black;stroke-width:0.25px;fill:none"/><line x1="-1" y1="9" x2="-1" y2="8.5" style="stroke:black;stroke-width:0.25px;fill:none"/><line x1="-1" y1="8.5" x2="-2.220739676521509" y2="8.265489416188442" style="stroke:black;stroke-width:0.25px;fill:none"/><line x1="-2.220739676521509" y1="8.265489416188442" x2="-3.3946330975088657" y2="7.856619255971194" style="stroke:black;stroke-width:0.25px;fill:none"/><line x1="-3.3946330975088657" y1="7.856619255971194" x2="-4.496917112309684" y2="7.282014589728335" style="stroke:black;stroke-width:0.25px;fill:none"/><line x1="-4.496917112309684" y1="7.282014589728335" x2="-5.5043391627000045" y2="6.5537966387405575" style="stroke:black;stroke-width:0.25px;fill:none"/><line x1="-5.5043391627000045" y1="6.5537966387405575" x2="-6.3956477930039215" y2="5.687327079379563" style="stroke:black;stroke-width:0.25px;fill:none"/><line x1="-6.3956477930039215" y1="5.687327079379563" x2="-7.15204094717837" y2="4.700883990260122" style="stroke:black;stroke-width:0.25px;fill:none"/><line x1="-7.15204094717837" y1="4.700883990260122" x2="-7.757562596086139" y2="3.6152762782123986" style="stroke:black;stroke-width:0.25px;fill:none"/><line x1="-7.757562596086139" y1="3.6152762782123986" x2="-8.199439328149051" y2="2.453404716715657" style="stroke:black;stroke-width:0.25px;fill:none"/><line x1="-8.199439328149051" y1="2.453404716715657" x2="-8.468349803039079" y2="1.239778856638551" style="stroke:black;stroke-width:0.25px;fill:none"/><line x1="-8.468349803039079" y1="1.239778856638551" x2="-8.558621384311845" y2="-4.440892098500626e-16" style="stroke:black;stroke-width:0.25px;fill:none"/><line x1="-8.558621384311845" y1="-4.440892098500626e-16" x2="-8.316461936106826" y2="1.1588137289060527" style="stroke:black;stroke-width:0.25px;fill:none"/><line x1="-8.316461936106826" y1="1.1588137289060527" x2="-7.783813728906053" y2="2.204194696096774" style="stroke:black;stroke-width:0.25px;fill:none"/><line x1="-7.783813728906053" y1="2.204194696096774" x2="-6.954194696096774" y2="3.033813728906053" style="stroke:black;stroke-width:0.25px;fill:none"/><line x1="-6.954194696096774" y1="3.033813728906053" x2="-5.908813728906053" y2="3.5664619361068257" style="stroke:black;stroke-width:0.25px;fill:none"/><line x1="-5.908813728906053" y1="3.5664619361068257" x2="-4.75" y2="3.75" style="stroke:black;stroke-width:0.25px;fill:none"/><line x1="-4.75" y1="3.75" x2="-3.5911862710939477" y2="3.566461936106826" style="stroke:black;stroke-width:0.25px;fill:none"/><line x1="-3.5911862710939477" y1="3.566461936106826" x2="-2.5458053039032262" y2="3.033813728906053" style="stroke:black;stroke-width:0.25px;fill:none"/><line x1="-2.5458053039032262" y1="3.033813728906053" x2="-1.7161862710939473" y2="2.2041946960967747" style="stroke:black;stroke-width:0.25px;fill:none"/><line x1="-1.7161862710939473" y1="2.2041946960967747" x2="-1.1835380638931743" y2="1.1588137289060532" style="stroke:black;stroke-width:0.25px;fill:none"/><line x1="-1.1835380638931743" y1="1.1588137289060532" x2="-1" y2="4.592425496802575e-16" style="stroke:black;stroke-width:0.25px;fill:none"/><line x1="-1" y1="4.592425496802575e-16" x2="-1" y2="-9" style="stroke:black;stroke-width:0.25px;fill:none"/></svg>